<svg width="11" height="8" viewBox="0 0 11 8" fill="none" xmlns="http://www.w3.org/2000/svg">
<path d="M1.0923 1.37497L0.959995 1.25157C0.876979 1.34059 0.832203 1.45873 0.831558 1.57948L1.01247 1.58045M1.0923 1.37497L0.959126 1.25251C1.00012 1.20793 1.04964 1.17172 1.10524 1.14671L1.17944 1.31171L1.10525 1.14671C1.1609 1.12169 1.22114 1.10858 1.28238 1.10858C1.34361 1.10858 1.40385 1.12169 1.45951 1.14671L1.38531 1.31171L1.45951 1.14671C1.51509 1.17171 1.56458 1.20789 1.60556 1.25245C1.60558 1.25247 1.6056 1.25249 1.60562 1.25251L5.76431 5.74836L9.92251 1.25404C9.96248 1.20852 10.0111 1.17111 10.0661 1.14472C10.1222 1.11782 10.1833 1.10312 10.2458 1.10199C10.3082 1.10087 10.3698 1.11336 10.4268 1.13829C10.4838 1.1632 10.5346 1.19981 10.5765 1.24515C10.6184 1.29045 10.6508 1.34363 10.6723 1.40117C10.6938 1.4587 10.7043 1.51989 10.7033 1.58123C10.7024 1.64257 10.69 1.70342 10.6667 1.76025C10.6438 1.81607 10.6105 1.86733 10.5683 1.91073L6.08798 6.75319C6.08783 6.75336 6.08767 6.75353 6.08751 6.7537C6.04667 6.79831 5.9973 6.83456 5.94181 6.85964C5.88607 6.88483 5.82569 6.89804 5.7643 6.89804C5.70291 6.89804 5.64252 6.88483 5.58678 6.85964C5.53128 6.83456 5.4819 6.79829 5.44105 6.75367C5.4409 6.75351 5.44076 6.75335 5.44061 6.75319L0.960521 1.90989C0.918591 1.86589 0.886037 1.81397 0.86414 1.75761C0.842011 1.70065 0.831035 1.63988 0.831563 1.57888L1.01247 1.58045M1.0923 1.37497C1.04159 1.42934 1.01288 1.50323 1.01247 1.58045M1.0923 1.37497L1.0923 1.78593M1.01247 1.58045C1.01214 1.61877 1.01905 1.65676 1.03278 1.69209C1.0465 1.72743 1.06676 1.75936 1.0923 1.78593M1.0923 1.78593L5.57422 6.63122C5.59907 6.65843 5.62866 6.68003 5.66129 6.69478C5.69392 6.70953 5.72893 6.71712 5.7643 6.71712C5.79966 6.71712 5.83468 6.70953 5.8673 6.69478C5.89993 6.68003 5.92953 6.65843 5.95437 6.63122L1.0923 1.78593Z" fill="#FF0075" stroke="#FF0075" stroke-width="0.361832"/>
</svg>
