<svg width="38" height="38" viewBox="0 0 38 38" fill="none" xmlns="http://www.w3.org/2000/svg">
<path d="M21.8644 12.1175C21.7843 12.0429 21.6755 12.0006 21.5619 12C21.5055 11.9995 21.4495 12.0097 21.3975 12.0299C21.3455 12.0501 21.2985 12.0799 21.2594 12.1175L14.1265 18.7155C14.0864 18.7521 14.0546 18.7957 14.0329 18.8437C14.0112 18.8917 14 18.9433 14 18.9953C14 19.0474 14.0112 19.0989 14.0329 19.147C14.0546 19.195 14.0864 19.2386 14.1265 19.2752L21.2594 25.8745C21.2986 25.9133 21.3459 25.9444 21.3983 25.966C21.4508 25.9875 21.5074 25.9991 21.5648 25.9999C21.6222 26.0008 21.6792 25.991 21.7325 25.9711C21.7857 25.9512 21.834 25.9216 21.8746 25.884C21.9152 25.8465 21.9472 25.8018 21.9688 25.7525C21.9903 25.7033 22.0009 25.6506 21.9999 25.5975C21.999 25.5444 21.9865 25.492 21.9632 25.4434C21.9399 25.3949 21.9063 25.3512 21.8644 25.3149L15.034 18.9953L21.8644 12.6772C21.9043 12.6405 21.9359 12.5969 21.9575 12.5489C21.9791 12.5009 21.9902 12.4494 21.9902 12.3973C21.9902 12.3453 21.9791 12.2938 21.9575 12.2458C21.9359 12.1978 21.9043 12.1542 21.8644 12.1175Z" fill="white"/>
<circle cx="19" cy="19" r="18.5" transform="rotate(90 19 19)" stroke="white"/>
</svg>
