<svg width="18" height="17" viewBox="0 0 18 17" fill="none" xmlns="http://www.w3.org/2000/svg">
<path d="M17.091 15.4162C15.7878 13.1642 13.7419 11.584 11.3646 10.9138C12.5204 10.3263 13.4446 9.36665 13.9883 8.18959C14.5319 7.01252 14.6633 5.68666 14.3612 4.42579C14.0591 3.16492 13.3412 2.04253 12.3232 1.2396C11.3052 0.43667 10.0464 0 8.74987 0C7.45332 0 6.19456 0.43667 5.17654 1.2396C4.15853 2.04253 3.44061 3.16492 3.13853 4.42579C2.83646 5.68666 2.96784 7.01252 3.51149 8.18959C4.05515 9.36665 4.97939 10.3263 6.13518 10.9138C3.75789 11.5832 1.71196 13.1634 0.408739 15.4162C0.372954 15.4725 0.348926 15.5354 0.3381 15.6012C0.327274 15.6671 0.329874 15.7344 0.345744 15.7992C0.361614 15.864 0.390425 15.9249 0.430444 15.9782C0.470464 16.0316 0.520864 16.0763 0.578614 16.1097C0.636364 16.1431 0.70027 16.1645 0.766487 16.1725C0.832704 16.1805 0.899864 16.1751 0.963926 16.1565C1.02799 16.1379 1.08763 16.1066 1.13926 16.0643C1.19089 16.0221 1.23345 15.9699 1.26437 15.9108C2.84786 13.1749 5.64554 11.542 8.74987 11.542C11.8542 11.542 14.6519 13.1749 16.2354 15.9108C16.2663 15.9699 16.3089 16.0221 16.3605 16.0643C16.4121 16.1066 16.4718 16.1379 16.5358 16.1565C16.5999 16.1751 16.667 16.1805 16.7333 16.1725C16.7995 16.1645 16.8634 16.1431 16.9211 16.1097C16.9789 16.0763 17.0293 16.0316 17.0693 15.9782C17.1093 15.9249 17.1381 15.864 17.154 15.7992C17.1699 15.7344 17.1725 15.6671 17.1616 15.6012C17.1508 15.5354 17.1268 15.4725 17.091 15.4162ZM3.96891 5.77183C3.96891 4.82625 4.24931 3.9019 4.77465 3.11567C5.29999 2.32944 6.04667 1.71666 6.92028 1.3548C7.79388 0.992937 8.75518 0.898258 9.68259 1.08273C10.61 1.26721 11.4619 1.72255 12.1305 2.39118C12.7992 3.05981 13.2545 3.9117 13.439 4.83911C13.6234 5.76653 13.5288 6.72782 13.1669 7.60143C12.805 8.47503 12.1923 9.22172 11.406 9.74706C10.6198 10.2724 9.69546 10.5528 8.74987 10.5528C7.48235 10.5513 6.26718 10.0471 5.37091 9.1508C4.47463 8.25452 3.97044 7.03935 3.96891 5.77183Z" fill="white"/>
</svg>
