<svg width="140" height="51" viewBox="0 0 140 51" fill="none" xmlns="http://www.w3.org/2000/svg">
<path fillRule="evenodd" clipRule="evenodd" d="M37.1856 12.2377H40.6575C42.6074 7.82422 45.2499 4.37309 47.5762 2.48843L45.5603 0C42.5701 2.42246 39.3542 6.78384 37.1856 12.2377ZM40.5928 37.9073H37.0918C38.8072 42.035 41.4989 46.1577 45.436 50.0948L47.7005 47.8303C44.469 44.5987 42.1618 41.2544 40.5928 37.9073Z" fill="#FF0075"/>
<path fillRule="evenodd" clipRule="evenodd" d="M101.509 37.9073H98.0201C96.0822 42.17 93.4998 45.6226 91.1711 47.7757L93.3454 50.1272C96.2215 47.4678 99.3468 43.1755 101.509 37.9073ZM101.758 12.2377H98.2499C96.6792 8.92871 94.3672 5.60662 91.126 2.36539L93.3905 0.10083C97.3405 4.05082 100.04 8.14901 101.758 12.2377Z" fill="#64F259"/>
<path d="M118.764 34.7907V15.1804H121.565V23.1965H136.571V15.1804H139.373V34.7907H136.571V25.5264H121.565V34.7907H118.764Z" fill="#142A41"/>
<path d="M107.626 28.8647L110.42 29.4648C109.708 30.7743 108.97 32.0838 107.125 33.2841C104.832 34.7846 101.88 35.2211 99.6395 35.2211C92.0748 35.2211 88.332 30.7198 88.332 24.9908C88.332 20.4349 90.5197 18.3343 91.7849 17.3522C92.5756 16.6974 94.7897 14.9242 99.5604 14.9242C100.905 14.9242 104.147 15.1152 106.651 16.7247C108.627 18.0069 109.55 19.6165 110.051 20.4895L107.204 21.1442C106.782 20.3803 106.334 19.5619 105.175 18.7708C104.041 18.0069 102.038 17.3249 99.6659 17.3249C95.2378 17.3249 91.1259 19.4801 91.1259 24.9089C91.1259 26.8186 91.6531 28.7828 93.0501 30.3924C94.3152 31.7291 96.4766 32.8476 99.824 32.8476C102.697 32.8749 104.621 32.1111 105.754 31.1835C106.756 30.4197 107.362 29.4376 107.626 28.8647Z" fill="#142A41"/>
<path d="M57.9102 34.7907L68.0343 15.1804H70.9744L81.0153 34.7907H77.8255L75.4401 29.9644H63.4021L61.0167 34.7907H57.9102ZM74.2474 27.6899L70.1146 19.452C69.9759 19.1191 69.8095 18.7863 69.6708 18.4534C69.5876 18.2038 69.5044 17.9542 69.4489 17.7045C69.3657 17.9542 69.2825 18.2315 69.1715 18.5089C69.0328 18.8695 68.8664 19.2023 68.7 19.5629L64.5671 27.6899H74.2474Z" fill="#142A41"/>
<path d="M31.5596 34.7907V15.2081H49.6443V17.6213H34.3333V23.4738H49.2282V25.776H34.3333V32.3775H50.3377V34.7907H31.5596Z" fill="#142A41"/>
<path d="M0.875977 34.7909V15.2084H14.1899C15.9096 15.2361 17.9899 15.2638 19.6819 16.7894C20.3198 17.3441 21.4293 18.6201 21.4293 20.9777C21.4293 25.6653 17.4629 26.3033 16.1592 26.5252L23.3709 34.7909H19.7374L13.1081 26.969H3.64971V34.7909H0.875977ZM14.3841 17.566H3.62197V24.6668H13.3023C14.8278 24.6668 16.7695 24.6391 17.879 23.169C18.3782 22.531 18.5447 21.7821 18.5447 21.0887C18.5447 20.3398 18.3505 19.5909 17.9622 19.0084C17.0746 17.5938 15.66 17.5938 14.3841 17.566Z" fill="#142A41"/>
</svg>
