<svg width="1126" height="372" viewBox="0 0 1126 372" fill="none" xmlns="http://www.w3.org/2000/svg">
<path d="M88.2038 9C30.6986 69.4068 -49.8086 224.724 88.2038 362.736" stroke="#FF0075" stroke-width="23.7407"/>
<path d="M859.173 132.385V114.76H991.462V131.777L879.229 239.959H993.488V257.786H850.664V240.972L962.695 132.385H859.173Z" fill="white"/>
<path d="M620.834 114.76H641.295V199.644C641.498 216.256 643.119 225.98 655.477 233.881C660.744 237.325 672.089 243.605 694.778 243.605C708.554 243.605 720.71 240.972 728.61 237.325C747.046 229.019 747.046 214.23 747.046 202.278V114.76H767.507V200.657C767.507 215.041 767.507 234.692 745.628 248.873C735.701 255.355 719.697 261.23 694.576 261.23C675.938 261.23 657.097 258.192 641.701 247.455C621.442 233.476 620.834 215.041 620.834 198.834V114.76Z" fill="white"/>
<path d="M380.267 257.786V114.76H477.509C490.069 114.963 505.263 115.165 517.621 126.307C522.28 130.359 530.384 139.678 530.384 156.898C530.384 191.135 501.414 195.795 491.892 197.416L544.565 257.786H518.026L469.608 200.657H400.526V257.786H380.267ZM478.927 131.98H400.323V183.842H471.026C482.168 183.842 496.349 183.64 504.453 172.902C508.099 168.243 509.315 162.773 509.315 157.708C509.315 152.239 507.897 146.769 505.061 142.514C498.578 132.182 488.246 132.182 478.927 131.98Z" fill="white"/>
<path d="M280.498 214.028L301.972 218.485C296.502 228.209 290.829 237.933 276.648 246.847C259.023 257.989 236.334 261.23 219.114 261.23C160.971 261.23 132.204 227.804 132.204 185.26C132.204 151.428 149.019 135.829 158.743 128.536C164.82 123.674 181.838 110.506 218.506 110.506C228.838 110.506 253.756 111.924 273.002 123.876C288.196 133.398 295.286 145.351 299.136 151.833L277.256 156.695C274.015 151.023 270.571 144.945 261.657 139.07C252.946 133.398 237.549 128.333 219.316 128.333C185.282 128.333 153.678 144.338 153.678 184.652C153.678 198.834 157.73 213.42 168.467 225.372C178.191 235.299 194.803 243.605 220.532 243.605C242.614 243.808 257.403 238.135 266.114 231.247C273.812 225.575 278.472 218.282 280.498 214.028Z" fill="white"/>
<path d="M1037.49 362.736C1094.99 302.329 1175.5 147.013 1037.49 9.00009" stroke="#64F259" stroke-width="23.7407"/>
</svg>
